HIERARCHY
ROOT Hips
{
	OFFSET -0.001795 -0.223333 0.028219
	CHANNELS 6 Xposition Yposition Zposition Zrotation Yrotation Xrotation 
	JOINT LeftUpLeg
	{
		OFFSET 0.069520 -0.091406 -0.006815
		CHANNELS 3 Zrotation Yrotation Xrotation
		JOINT LeftLeg
		{
			OFFSET 0.034277 -0.375199 -0.004496
			CHANNELS 3 Zrotation Yrotation Xrotation
			JOINT LeftFoot
			{
				OFFSET -0.013596 -0.397961 -0.043693
				CHANNELS 3 Zrotation Yrotation Xrotation
				JOINT LeftToe
				{
					OFFSET 0.026358 -0.055791 0.119288
					CHANNELS 3 Zrotation Yrotation Xrotation
					End Site
					{
						OFFSET 0.000000 0.000000 0.000000
					}
				}
			}
		}
	}
	JOINT RightUpLeg
	{
		OFFSET -0.067670 -0.090522 -0.004320
		CHANNELS 3 Zrotation Yrotation Xrotation
		JOINT RightLeg
		{
			OFFSET -0.038290 -0.382569 -0.008850
			CHANNELS 3 Zrotation Yrotation Xrotation
			JOINT RightFoot
			{
				OFFSET 0.015774 -0.398415 -0.042312
				CHANNELS 3 Zrotation Yrotation Xrotation
				JOINT RightToe
				{
					OFFSET -0.025372 -0.048144 0.123348
					CHANNELS 3 Zrotation Yrotation Xrotation
					End Site
					{
						OFFSET 0.000000 0.000000 0.000000
					}
				}
			}
		}
	}
	JOINT Spine
	{
		OFFSET -0.002533 0.108963 -0.026696
		CHANNELS 3 Zrotation Yrotation Xrotation
		JOINT Spine1
		{
			OFFSET 0.005487 0.135180 0.001092
			CHANNELS 3 Zrotation Yrotation Xrotation
			JOINT Spine2
			{
				OFFSET 0.001457 0.052922 0.025425
				CHANNELS 3 Zrotation Yrotation Xrotation
				JOINT Neck
				{
					OFFSET -0.002778 0.213870 -0.042857
					CHANNELS 3 Zrotation Yrotation Xrotation
					JOINT Head
					{
						OFFSET 0.005152 0.064970 0.051349
						CHANNELS 3 Zrotation Yrotation Xrotation
						End Site
						{
							OFFSET 0.000000 0.000000 0.000000
						}
					}
				}
				JOINT LeftShoulder
				{
					OFFSET 0.078845 0.121749 -0.034090
					CHANNELS 3 Zrotation Yrotation Xrotation
					JOINT LeftArm
					{
						OFFSET 0.090977 0.030469 -0.008868
						CHANNELS 3 Zrotation Yrotation Xrotation
						JOINT LeftForeArm
						{
							OFFSET 0.259612 -0.012772 -0.027456
							CHANNELS 3 Zrotation Yrotation Xrotation
							JOINT LeftHand
							{
								OFFSET 0.249234 0.008986 -0.001171
								CHANNELS 3 Zrotation Yrotation Xrotation
								End Site
								{
									OFFSET 0.000000 0.000000 0.000000
								}
							}
						}
					}
				}
				JOINT RightShoulder
				{
					OFFSET -0.081759 0.118833 -0.038615
					CHANNELS 3 Zrotation Yrotation Xrotation
					JOINT RightArm
					{
						OFFSET -0.096012 0.032551 -0.009143
						CHANNELS 3 Zrotation Yrotation Xrotation
						JOINT RightForeArm
						{
							OFFSET -0.253742 -0.013329 -0.021401
							CHANNELS 3 Zrotation Yrotation Xrotation
							JOINT RightHand
							{
								OFFSET -0.255298 0.007772 -0.005559
								CHANNELS 3 Zrotation Yrotation Xrotation
								End Site
								{
									OFFSET 0.000000 0.000000 0.000000
								}
							}
						}
					}
				}
			}
		}
	}
}
MOTION
Frames: 17
Frame Time: 0.050000
0.000000 0.938691 0.000000 4.739292 -7.140140 3.154648 1.088736 -0.845329 -10.705675 -0.796443 0.253607 34.761590 3.989254 10.385007 11.691184 0.000000 0.000000 0.000000 -2.773090 1.987982 -21.387968 4.837357 0.039853 24.979900 -24.030579 -46.472368 8.506409 0.000000 0.000000 0.000000 7.790814 -2.415011 25.119125 13.807675 -2.478711 -25.551973 1.386700 6.112358 26.367651 -3.670380 4.127293 -21.902556 0.000000 0.000000 0.000000 -31.588628 0.597474 -3.334885 -36.453249 -8.334482 -3.715293 0.889383 -46.003353 1.845680 0.000000 0.000000 0.000000 30.176073 8.434019 4.645358 38.596185 12.312801 -2.534839 -17.649222 18.026892 -1.527450 0.000000 0.000000 0.000000 
-0.011541 0.942388 0.018455 4.557101 -6.696926 3.019345 -1.184140 -1.214119 -12.554865 -0.168966 -0.151681 32.735705 4.528110 10.617120 6.660923 0.000000 0.000000 0.000000 -1.427864 1.919303 -19.272857 5.396065 -0.195093 24.143070 -24.887220 -48.059130 7.754845 0.000000 0.000000 0.000000 8.451586 -2.577820 24.875763 14.148580 -2.247873 -27.397202 2.200107 5.869823 27.592760 -1.978799 3.053611 -22.680520 0.000000 0.000000 0.000000 -32.816828 0.926137 -3.710828 -37.870845 -10.265536 -3.379203 6.126023 -44.191654 -0.218444 0.000000 0.000000 0.000000 27.400288 6.941764 3.581125 41.165888 9.779535 -3.419539 -13.953375 19.909284 -1.198577 0.000000 0.000000 0.000000 
-0.026323 0.941976 0.036423 4.587574 -7.744354 1.286739 -2.942395 -1.563453 -14.245859 -0.648864 0.180480 31.934101 4.118183 9.272511 3.274574 0.000000 0.000000 0.000000 0.073500 1.743697 -16.131530 4.092748 0.320189 24.512278 -23.736998 -47.073866 5.579313 0.000000 0.000000 0.000000 7.256282 -2.223555 25.417434 13.217963 -2.155423 -27.127733 2.267800 5.770268 26.567564 -3.691117 4.028626 -23.135098 0.000000 0.000000 0.000000 -32.165182 1.852063 -3.993954 -38.287264 -10.930726 -3.188722 6.187189 -45.051590 -0.166172 0.000000 0.000000 0.000000 24.970570 4.943384 1.983931 45.848562 7.218941 -4.331237 -14.533417 21.318494 -1.359830 0.000000 0.000000 0.000000 
-0.045191 0.942409 0.052554 4.647827 -9.703251 0.709880 -5.256592 -2.000967 -15.859493 -1.179705 0.549208 29.275582 0.060909 -0.326751 -1.286316 0.000000 0.000000 0.000000 1.141556 1.587461 -13.967269 4.228481 0.440817 24.462497 -22.029801 -45.604387 1.931197 0.000000 0.000000 0.000000 5.267609 -1.618922 24.953583 15.446033 -2.603962 -27.110523 1.506787 7.818833 27.405196 -3.190015 3.932732 -25.065551 0.000000 0.000000 0.000000 -31.865510 2.536148 -4.808056 -39.648293 -10.927025 -3.238910 8.337648 -44.957929 -1.082755 0.000000 0.000000 0.000000 25.781296 3.631171 1.494952 44.950302 6.079119 -4.850346 -12.375746 22.442382 -1.059804 0.000000 0.000000 0.000000 
-0.069421 0.940703 0.066352 4.814381 -10.638481 -0.221903 -8.687003 -2.636351 -17.284405 -4.259996 1.420401 22.452242 -5.100641 -8.944769 3.591151 0.000000 0.000000 0.000000 2.367224 1.238748 -10.722233 3.491715 0.605819 22.453205 -20.991796 -44.449310 -0.379258 0.000000 0.000000 0.000000 3.237047 -1.089069 24.734114 15.433064 -2.969241 -25.213031 0.844396 8.526256 25.228487 -3.151196 3.917674 -25.297385 0.000000 0.000000 0.000000 -31.197881 3.694798 -5.695516 -40.738671 -11.554836 -2.844214 8.345244 -45.345754 -1.159922 0.000000 0.000000 0.000000 25.286980 4.265995 1.850431 47.258149 4.162959 -5.474048 -12.372592 22.903038 -1.083536 0.000000 0.000000 0.000000 
-0.100075 0.935056 0.077303 4.761085 -13.166792 -0.164984 -10.477353 -2.959279 -18.278197 -8.121224 2.387652 16.510296 -5.499633 -5.882177 12.338205 0.000000 0.000000 0.000000 3.719033 1.166215 -9.747537 3.983407 0.643887 22.481062 -19.687103 -42.942780 -4.121874 0.000000 0.000000 0.000000 0.911778 -0.449122 23.027450 15.545037 -3.234149 -23.720200 0.343323 9.154647 25.720706 -3.827457 4.196044 -24.394055 0.000000 0.000000 0.000000 -31.500973 4.032767 -5.572335 -42.330808 -13.196310 -2.553114 11.814567 -45.563254 -2.354369 0.000000 0.000000 0.000000 24.388965 4.701717 1.823003 48.899267 4.050343 -5.634686 -11.883572 24.275073 -1.095946 0.000000 0.000000 0.000000 
-0.137134 0.927803 0.086340 3.919522 -14.660350 -0.694500 -10.728067 -2.868600 -17.600823 -8.784332 2.527544 14.902364 -2.438562 -0.217898 15.131600 0.000000 0.000000 0.000000 5.141638 0.982470 -8.149837 5.114967 0.443062 22.517416 -18.446644 -41.040520 -6.906013 0.000000 0.000000 0.000000 -0.915692 -0.016121 22.281077 14.543659 -2.961630 -24.082051 0.347821 9.363076 26.632833 -1.923263 2.921929 -23.969108 0.000000 0.000000 0.000000 -31.544627 2.425128 -4.019135 -42.755510 -14.951955 -2.222829 17.586661 -44.971272 -4.457514 0.000000 0.000000 0.000000 24.397686 5.563491 2.089220 49.232271 3.702496 -5.813456 -10.618775 24.902780 -0.932315 0.000000 0.000000 0.000000 
-0.179286 0.917407 0.094275 2.614622 -16.091851 -1.891973 -10.365617 -2.522323 -15.452689 -6.270820 1.981142 16.173343 0.804647 3.645823 9.782635 0.000000 0.000000 0.000000 6.174071 0.897801 -7.318496 7.527778 0.181773 26.725889 -16.303967 -37.245812 -10.801446 0.000000 0.000000 0.000000 -2.650527 0.416102 22.614634 15.256348 -3.085654 -24.413711 -1.185034 9.902507 27.565935 -3.626303 3.969868 -24.376563 0.000000 0.000000 0.000000 -31.953730 2.160764 -3.660651 -42.206279 -17.509220 -1.566893 18.781862 -43.083567 -4.611985 0.000000 0.000000 0.000000 24.161115 6.700322 2.718143 50.204918 4.663403 -5.662486 -10.789371 26.126839 -1.003310 0.000000 0.000000 0.000000 
-0.224880 0.908477 0.100964 1.849058 -18.653685 -3.014329 -7.828253 -2.121531 -14.880093 -5.124238 2.155708 19.760786 3.678851 8.043207 3.838009 0.000000 0.000000 0.000000 6.713339 0.891596 -7.170034 11.303159 -0.360720 31.669676 -14.887506 -33.859638 -13.346753 0.000000 0.000000 0.000000 -4.583911 0.938857 22.458958 13.782743 -2.987988 -23.509249 -0.351626 10.394920 28.691158 -2.620290 3.218149 -27.419913 0.000000 0.000000 0.000000 -33.872870 -0.010602 -1.688709 -39.349300 -19.576113 -1.248627 22.599681 -38.356527 -5.257083 0.000000 0.000000 0.000000 24.843985 8.357241 3.360157 49.260263 7.744626 -4.387220 -9.949539 25.320742 -0.866307 0.000000 0.000000 0.000000 
-0.271834 0.906838 0.105821 1.457192 -19.539742 -4.170178 -5.963709 -1.681734 -12.688021 -2.743284 1.530325 21.109730 4.235216 9.083406 0.396557 0.000000 0.000000 0.000000 5.081170 1.105913 -8.830900 17.600808 -2.151009 34.829526 -14.887973 -33.286801 -6.806575 0.000000 0.000000 0.000000 -7.120801 1.673954 23.559145 14.283431 -3.071520 -23.723025 -1.057567 10.652717 29.190693 -2.932477 3.412472 -28.728668 0.000000 0.000000 0.000000 -35.601545 -1.113585 -0.877784 -38.079348 -19.873320 -1.316338 23.398460 -35.922272 -5.137052 0.000000 0.000000 0.000000 26.355923 9.437481 4.010841 47.736985 8.128066 -4.184811 -9.082840 25.996550 -0.741884 0.000000 0.000000 0.000000 
-0.317770 0.914049 0.108157 0.887405 -20.821694 -4.914937 -3.336167 -1.193720 -10.648598 -1.113230 1.100184 21.587046 4.437056 9.530755 2.070691 0.000000 0.000000 0.000000 2.551812 1.186276 -10.151445 20.251518 -2.775317 36.848292 -8.114282 -19.718641 4.281343 0.000000 0.000000 0.000000 -8.321852 1.936405 22.897021 12.757733 -3.210111 -21.221198 -0.068299 10.324943 27.926021 -4.363445 4.055729 -27.783933 0.000000 0.000000 0.000000 -36.228546 0.356793 -1.644179 -39.713720 -18.757969 -1.630650 20.098388 -36.661553 -4.067970 0.000000 0.000000 0.000000 25.049560 10.995985 4.537787 49.523713 8.346293 -3.958989 -8.691860 27.725621 -0.764167 0.000000 0.000000 0.000000 
-0.363088 0.922043 0.106892 0.019202 -20.102445 -3.350184 -1.590406 -1.020695 -11.233024 1.613037 0.109519 21.885422 5.220197 11.029387 4.679888 0.000000 0.000000 0.000000 2.501472 1.640281 -13.046782 14.335437 -0.959675 35.369665 14.144502 9.799613 25.493061 0.000000 0.000000 0.000000 -7.820144 1.683768 22.046721 12.365270 -3.107084 -21.065493 -1.229411 10.216212 27.227384 -4.990005 4.452557 -27.422275 0.000000 0.000000 0.000000 -34.043976 0.522160 -1.751119 -40.581091 -17.796175 -1.805665 16.132715 -37.579139 -2.931713 0.000000 0.000000 0.000000 26.083270 11.722905 5.098327 50.526869 8.471231 -3.901864 -10.162582 28.904235 -1.107892 0.000000 0.000000 0.000000 
-0.408936 0.927676 0.101561 -0.885291 -18.605059 -2.045401 1.306738 -0.674561 -11.520644 1.988063 -0.152499 21.587038 6.367858 13.210406 6.085984 0.000000 0.000000 0.000000 3.607969 1.840066 -13.704541 8.184096 0.470054 29.846442 45.574145 32.484148 53.004245 0.000000 0.000000 0.000000 -7.422304 1.589161 22.647083 11.104226 -2.567833 -22.464932 -0.528557 9.977668 27.817442 -6.910741 5.602942 -28.745771 0.000000 0.000000 0.000000 -34.028763 0.579545 -2.029957 -41.205524 -16.981097 -2.031527 15.434054 -40.359013 -2.927902 0.000000 0.000000 0.000000 25.400859 11.551539 5.231724 52.262745 9.130156 -3.844050 -9.352356 28.870978 -0.844667 0.000000 0.000000 0.000000 
-0.454618 0.930133 0.092974 -1.508310 -14.740421 -1.147724 1.983844 -0.688468 -12.363716 1.883672 -0.373979 22.386588 -6.893778 -11.619877 5.178547 0.000000 0.000000 0.000000 5.642007 1.988963 -13.567833 6.485900 0.200295 24.680041 58.619299 35.862473 65.492878 0.000000 0.000000 0.000000 -7.571642 1.475175 23.276882 9.696132 -2.117891 -23.069205 0.327978 8.905950 26.912725 -7.530360 6.113570 -28.541826 0.000000 0.000000 0.000000 -34.680108 0.460716 -2.705208 -39.591820 -15.868289 -2.058024 13.368744 -43.733901 -2.660262 0.000000 0.000000 0.000000 25.208326 10.755843 5.186350 52.985860 7.640025 -4.506969 -6.877405 30.749766 -0.217077 0.000000 0.000000 0.000000 
-0.499555 0.932009 0.082487 -0.984752 -10.479736 -0.947480 0.695224 -0.999257 -13.552541 -3.841067 1.347835 24.016701 -19.696116 -25.971210 16.068866 0.000000 0.000000 0.000000 5.959435 2.324938 -15.335444 6.647049 -0.225637 24.709269 61.926376 37.147944 67.601795 0.000000 0.000000 0.000000 -7.944803 1.438467 24.731632 8.083837 -1.576224 -23.989190 1.528648 7.003054 26.732517 -9.642704 7.442209 -27.542739 0.000000 0.000000 0.000000 -37.326401 0.278206 -3.323779 -37.345180 -15.388859 -1.978110 13.167485 -47.402768 -3.044983 0.000000 0.000000 0.000000 24.981038 10.042440 4.980961 53.944844 6.415705 -5.115833 -5.851062 29.189852 0.060926 0.000000 0.000000 0.000000 
-0.543754 0.936258 0.072014 -0.695369 -6.669164 -1.037150 -0.994836 -1.197762 -12.698936 -10.190436 3.119306 22.614686 -11.286596 -9.672787 21.255364 0.000000 0.000000 0.000000 6.472331 2.383187 -15.510687 10.449310 -1.679974 22.045392 56.057448 30.539572 67.655230 0.000000 0.000000 0.000000 -8.802886 1.473445 25.799844 6.750419 -1.146933 -24.485433 1.792314 6.251621 28.133129 -11.229865 8.619584 -27.559788 0.000000 0.000000 0.000000 -37.466387 -1.497938 -2.688270 -36.049888 -16.968117 -1.412148 17.937161 -50.775771 -5.765970 0.000000 0.000000 0.000000 25.276414 10.038415 5.645219 55.934475 5.112899 -6.158443 -5.630808 30.223700 0.288330 0.000000 0.000000 0.000000 
-0.587085 0.940746 0.061870 -1.498182 -1.578766 -1.290138 -2.357971 -1.131024 -10.335490 -10.457799 2.468095 19.775976 6.139878 14.337029 12.003783 0.000000 0.000000 0.000000 5.827508 2.456878 -16.720726 15.861049 -3.762607 21.657046 49.484164 26.856181 64.075477 0.000000 0.000000 0.000000 -10.334098 1.513474 26.876425 8.165997 -1.433674 -24.043703 1.628713 5.998268 28.464789 -9.689797 8.190709 -26.247480 0.000000 0.000000 0.000000 -36.750102 -2.145688 -3.538713 -36.463496 -18.639394 -0.530042 17.566465 -53.312747 -6.325389 0.000000 0.000000 0.000000 24.178207 9.946447 6.457154 59.126709 4.708953 -6.706100 -5.607869 29.827772 0.471267 0.000000 0.000000 0.000000 
